<?xml version="1.0" encoding="utf-8"?>
<!-- Generator: Adobe Illustrator 27.6.1, SVG Export Plug-In . SVG Version: 6.00 Build 0)  -->
<svg version="1.1" id="Layer_1" xmlns="http://www.w3.org/2000/svg" xmlns:xlink="http://www.w3.org/1999/xlink" x="0px" y="0px"
	 viewBox="0 0 24 24" style="enable-background:new 0 0 24 24;" xml:space="preserve">
<style type="text/css">
	.st0{fill:#E0E0E0;}
</style>
<path class="st0" d="M5,22c-0.5,0-1-0.2-1.4-0.6S3,20.5,3,20V6c0-0.5,0.2-1,0.6-1.4C4,4.2,4.5,4,5,4h1V2h2v2h8V2h2v2h1
	c0.6,0,1,0.2,1.4,0.6C20.8,5,21,5.4,21,6v5.7c-0.3-0.2-0.6-0.3-1-0.4c-0.3-0.1-0.7-0.2-1-0.2V10H5v10h6.3c0.1,0.4,0.3,0.7,0.4,1
	c0.2,0.3,0.3,0.7,0.6,1H5z M18,23c-1.4,0-2.6-0.5-3.5-1.5S13,19.4,13,18s0.5-2.6,1.5-3.5S16.6,13,18,13s2.6,0.5,3.5,1.5
	S23,16.6,23,18s-0.5,2.6-1.5,3.5S19.4,23,18,23z M19.7,20.4l0.7-0.7l-1.9-1.9V15h-1v3.2L19.7,20.4z"/>
</svg>
